<svg xmlns="http://www.w3.org/2000/svg" version="1.1" xmlns:xlink="http://www.w3.org/1999/xlink" xmlns:svgjs="http://svgjs.dev/svgjs" width="2000" height="1020" viewBox="0 0 2000 1020"><g transform="matrix(1,0,0,1,-1.2121212121212466,-2.006430468830956)"><svg viewBox="0 0 396 202" data-background-color="#f4efec" preserveAspectRatio="xMidYMid meet" height="1020" width="2000" xmlns="http://www.w3.org/2000/svg" xmlns:xlink="http://www.w3.org/1999/xlink"><g id="tight-bounds" transform="matrix(1,0,0,1,0.2400000000000091,0.39735191637632283)"><svg viewBox="0 0 395.52 201.20529616724735" height="201.20529616724735" width="395.52"><g><svg viewBox="0 0 395.52 201.20529616724735" height="201.20529616724735" width="395.52"><g><svg viewBox="0 0 395.52 201.20529616724735" height="201.20529616724735" width="395.52"><g id="textblocktransform"><svg viewBox="0 0 395.52 201.20529616724735" height="201.20529616724735" width="395.52" id="textblock"><g><svg viewBox="0 0 395.52 201.20529616724735" height="201.20529616724735" width="395.52"><g transform="matrix(1,0,0,1,0,0)"><svg width="395.52" viewBox="3.75 -37.5 86.09 43.8" height="201.20529616724735" data-palette-color="#7a4ae1"><path d="M3.75-14.1L3.75-14.1 3.75-17.1Q5.65-17.3 6.68-18.9 7.7-20.5 7.7-22.75L7.7-22.75 7.7-31.4Q7.7-34.3 9.22-35.9 10.75-37.5 13.3-37.5L13.3-37.5 16.65-37.5 16.65-35.2 14.5-35.2Q13.8-35.2 13.38-35.05 12.95-34.9 12.53-33.98 12.1-33.05 12.1-31.2L12.1-31.2 12.1-21.9Q12.1-17.45 8.15-15.6L8.15-15.6Q9.9-15.1 11-13.45 12.1-11.8 12.1-9.25L12.1-9.25 12.1 0Q12.1 1.4 12.33 2.27 12.55 3.15 12.98 3.5 13.4 3.85 13.68 3.93 13.95 4 14.35 4L14.35 4 16.65 4 16.65 6.3 12.7 6.3Q10.55 6.3 9.13 4.5 7.7 2.7 7.7 0.2L7.7 0.2 7.7-8.5Q7.7-10.65 6.68-12.25 5.65-13.85 3.75-14.1ZM42.05-4.4L42.05 0 22.15 0 22.15-26.65Q22.15-30.35 24.5-32.6L24.5-32.6Q26.1-34.1 28.1-34.55 30.1-35 33-35L33-35 42.05-35 42.05-30.6 32.35-30.6Q26.85-30.6 26.85-26L26.85-26 26.85-20.3 38.4-20.3 38.4-15.9 26.85-15.9 26.85-4.4 42.05-4.4ZM51.75-12.8L51.75 0 47.3 0 47.3-22Q47.3-27.4 50.77-31.2 54.25-35 59.75-35L59.75-35 71.2-35 71.2 0 66.5 0 66.5-30.6 59.75-30.6Q56.09-30.6 53.92-28.45 51.75-26.3 51.75-21.6L51.75-21.6 51.75-17.35Q54.55-20.3 59.75-20.3L59.75-20.3 64.3-20.3 64.3-15.9 59.75-15.9Q56.84-15.9 55.02-15.2 53.2-14.5 51.75-12.8L51.75-12.8ZM89.84-17.1L89.84-17.1 89.84-14.1Q87.94-13.9 86.92-12.33 85.89-10.75 85.89-8.65L85.89-8.65 85.89 0.2Q85.89 2.7 84.47 4.5 83.04 6.3 80.89 6.3L80.89 6.3 76.94 6.3 76.94 4 79.24 4Q79.64 4 79.92 3.93 80.19 3.85 80.62 3.5 81.04 3.15 81.27 2.27 81.49 1.4 81.49 0L81.49 0 81.49-9.05Q81.49-11.25 82.29-12.88 83.09-14.5 85.44-15.6L85.44-15.6Q81.49-16.8 81.49-22.35L81.49-22.35 81.49-31.2Q81.49-32.6 81.27-33.48 81.04-34.35 80.62-34.7 80.19-35.05 79.92-35.13 79.64-35.2 79.24-35.2L79.24-35.2 76.94-35.2 76.94-37.5 80.89-37.5Q83.04-37.5 84.47-35.7 85.89-33.9 85.89-31.4L85.89-31.4 85.89-22.7Q85.89-20.55 86.92-18.95 87.94-17.35 89.84-17.1Z" opacity="1" transform="matrix(1,0,0,1,0,0)" fill="#7a4ae1" class="wordmark-text-0" data-fill-palette-color="primary" id="text-0"></path></svg></g></svg></g></svg></g></svg></g><g></g></svg></g><defs></defs></svg><rect width="395.52" height="201.20529616724735" fill="none" stroke="none" visibility="hidden"></rect></g></svg></g></svg>